<svg width="64" height="64" viewBox="0 0 64 64" fill="none" xmlns="http://www.w3.org/2000/svg" role="img" aria-label="Chicago Crime AI Studio logo">
  <defs>
    <linearGradient id="ccai_grad" x1="14" y1="14" x2="52" y2="52" gradientUnits="userSpaceOnUse">
      <stop offset="0" stop-color="#2CF0C0"/>
      <stop offset="1" stop-color="#38BDF8"/>
    </linearGradient>
    <filter id="ccai_glow" x="-40%" y="-40%" width="180%" height="180%" color-interpolation-filters="sRGB">
      <feGaussianBlur stdDeviation="2.25" result="b"/>
      <feColorMatrix in="b" type="matrix" values="
        1 0 0 0 0
        0 1 0 0 0
        0 0 1 0 0
        0 0 0 0.55 0" result="g"/>
      <feMerge>
        <feMergeNode in="g"/>
        <feMergeNode in="SourceGraphic"/>
      </feMerge>
    </filter>
  </defs>

  <rect x="6" y="6" width="52" height="52" rx="14" fill="#141824"/>

  <!-- Subtle shield -->
  <path
    d="M32 14C26 18.4 21.3 19.9 18 20.6V33.6C18 40.9 23.5 47.4 32 50.8C40.5 47.4 46 40.9 46 33.6V20.6C42.7 19.9 38 18.4 32 14Z"
    fill="#0B1020"
    stroke="#1F2937"
    stroke-width="1.2"
  />

  <!-- Skyline bars -->
  <g filter="url(#ccai_glow)" stroke="url(#ccai_grad)" stroke-linecap="round">
    <path d="M24 40V26" stroke-width="4"/>
    <path d="M32 40V22" stroke-width="4"/>
    <path d="M40 40V28" stroke-width="4"/>
  </g>

  <!-- Signal arc -->
  <path
    d="M22 41C25.7 37.4 29.3 35.1 33.3 33.5C37.7 31.8 40.8 29.5 43 25.2"
    stroke="#2CF0C0"
    stroke-opacity="0.55"
    stroke-width="2"
    stroke-linecap="round"
    fill="none"
  />
</svg>
